<svg xmlns="http://www.w3.org/2000/svg" xmlns:xlink="http://www.w3.org/1999/xlink" width="34" height="34" viewBox="0 0 34 34">
  <defs>
    <clipPath id="clip-path">
      <rect id="Rectangle_5" data-name="Rectangle 5" width="34" height="34" transform="translate(593 738)" fill="#fff" stroke="#707070" stroke-width="1"/>
    </clipPath>
  </defs>
  <g id="Mask_Group_2" data-name="Mask Group 2" transform="translate(-593 -738)" clip-path="url(#clip-path)">
    <g id="instagram_f_icon-icons.com_65485" transform="translate(592.386 737.393)">
      <path id="Path_1" data-name="Path 1" d="M34.587,17.6c0,2.383-.048,4.774.014,7.157a9.47,9.47,0,0,1-5.924,8.931,10.714,10.714,0,0,1-4.253.89c-4.609.007-9.226.068-13.835-.021a10.087,10.087,0,0,1-8.376-4.383A8.551,8.551,0,0,1,.623,25.1V10.376c0-4.007,1.952-6.808,5.418-8.63A10.41,10.41,0,0,1,10.89.616c4.472,0,8.952-.027,13.424.014a10.3,10.3,0,0,1,8.506,4.15,8.57,8.57,0,0,1,1.767,5.328Zm-31.437,0v7.534a5.887,5.887,0,0,0,.842,3.13,7.575,7.575,0,0,0,6.7,3.767c4.6.068,9.2.027,13.8.014a7.487,7.487,0,0,0,3.246-.719A6.85,6.85,0,0,0,32.06,24.7c-.027-4.863-.007-9.726-.007-14.588A6.18,6.18,0,0,0,30.848,6.37a7.657,7.657,0,0,0-6.356-3.205c-4.589-.055-9.178-.021-13.766-.014a8.085,8.085,0,0,0-2.842.541A7.017,7.017,0,0,0,3.13,10.506C3.212,12.876,3.151,15.239,3.151,17.6Z" fill="#fff" stroke="#707070" stroke-width="0.068"/>
      <path id="Path_2" data-name="Path 2" d="M17.643,24.862a7.877,7.877,0,1,1,7.972-7.883A7.933,7.933,0,0,1,17.643,24.862Zm0-2.534a5.347,5.347,0,1,0-5.459-5.349A5.4,5.4,0,0,0,17.643,22.328Z" fill="#fff" stroke="#707070" stroke-width="0.068"/>
      <path id="Path_3" data-name="Path 3" d="M26.54,6.712a1.749,1.749,0,1,1-1.671,1.76A1.72,1.72,0,0,1,26.54,6.712Z" fill="#fff" stroke="#707070" stroke-width="0.068"/>
    </g>
  </g>
</svg>
