<svg xmlns="http://www.w3.org/2000/svg" xmlns:xlink="http://www.w3.org/1999/xlink" width="34" height="34" viewBox="0 0 34 34">
  <defs>
    <clipPath id="clip-path">
      <rect id="Rectangle_4" data-name="Rectangle 4" width="34" height="34" transform="translate(637 738)" fill="#fff" stroke="#fff" stroke-width="0.5"/>
    </clipPath>
  </defs>
  <g id="Mask_Group_4" data-name="Mask Group 4" transform="translate(-637 -738)" clip-path="url(#clip-path)">
    <path id="facebook-svgrepo-com_1_" data-name="facebook-svgrepo-com (1)" d="M6.8,3.4H34a3.4,3.4,0,0,1,3.4,3.4V34A3.4,3.4,0,0,1,34,37.4H6.8A3.4,3.4,0,0,1,3.4,34V6.8A3.4,3.4,0,0,1,6.8,3.4Zm0,3.4V34H34V6.8ZM22.1,20.407H18.926v-3.4H22.1V15.3a5.1,5.1,0,0,1,5.1-5.1h1.7v3.4H27.2a1.7,1.7,0,0,0-1.7,1.7v1.707h3.37v3.4H25.5V30.6H22.1Z" transform="translate(633.6 734.6)" fill="#fff" fill-rule="evenodd"/>
  </g>
</svg>
